<svg width="531" height="375" viewBox="0 0 531 375" fill="none" xmlns="http://www.w3.org/2000/svg">
<path fill-rule="evenodd" clip-rule="evenodd" d="M138.337 1.59598C133.716 4.83198 134.508 11.287 141.149 24.505C146.389 34.935 158.715 54.316 167.614 66.119C175.866 77.063 192.908 94.769 201.153 100.965L206.807 105.213L207.984 113.916C211.19 137.618 217.418 162.75 224.019 178.619C230.094 193.222 234.37 198.119 241.046 198.119H244.822L247.317 195.154C252.066 189.51 251.646 182.402 245.392 162.619C240.895 148.396 235.035 123.052 233.031 109.163C229.85 87.112 228.857 65.283 229.613 33.975L230.304 5.332L227.638 2.66599L224.972 0L221.268 0.30899L217.564 0.618988L215.386 3.86298C211.648 9.42898 209.029 29.753 208.916 54.075C208.875 62.899 208.603 70.119 208.312 70.119C206.969 70.119 194.709 59.448 187.428 51.941C174.826 38.95 160.472 21.006 154.58 10.88C148.716 0.800974 143.625 -2.10802 138.337 1.59598ZM454.589 47.439C453.313 48.715 447.723 58.728 442.168 69.689C431.875 89.999 423.397 104.426 417.513 111.646L414.231 115.673L403.866 120.018C389.619 125.989 378.371 132.179 369.169 139.112C343.552 158.416 326.291 188.017 313.77 234.119L310.647 245.619L310.596 254.815L310.545 264.011L313.536 268.315C315.255 270.789 318.434 273.603 321.013 274.933L325.5 277.247L331.543 276.899L337.585 276.551L340.919 274.177C345.443 270.956 347.783 265.148 349.487 252.915C350.276 247.252 352.119 234.069 353.582 223.619C357.664 194.465 361.934 181.765 371.733 169.63C382.773 155.96 403.343 144.183 440.5 130.259C474.545 117.502 492.829 109.191 509.419 98.935C524.83 89.408 531 83.601 531 78.623C531 77.746 529.895 75.924 528.545 74.574C524.848 70.876 521.14 71.385 513.274 76.67C502.318 84.03 480.717 94.455 463 100.933C453.925 104.251 445.681 107.286 444.681 107.676C443.5 108.137 445.03 105.091 449.035 99.003C460.136 82.131 469 61.994 469 53.647C469 46.099 459.864 42.164 454.589 47.439ZM305.562 64.485C301.39 68.908 295.912 78.264 286.746 96.619C274.412 121.318 268.801 138.79 265.872 161.619C264.145 175.075 264.367 206.68 266.38 234.11C268.141 258.111 268.753 269.974 269.854 301.476L270.549 321.334L273.33 323.726L276.112 326.119H280.521H284.93L288.45 323.029L291.97 319.938L294.413 312.204C297.999 300.855 298.877 292.127 300.01 256.619C301.279 216.84 302.32 201.397 306.11 166.119C309.483 134.722 312.805 110.024 318.09 77.043C319.569 67.814 318.895 64.633 315.035 62.637C310.74 60.416 309.097 60.736 305.562 64.485ZM72.625 65.981C69.903 68.989 69.235 73.13 70.182 81.119C72.091 97.229 84.606 127.256 97.688 147.119C106.631 160.696 106.567 160.587 105.117 159.691C104.462 159.286 99.779 157.846 94.713 156.491C66.093 148.838 43.226 135.949 21.917 115.458L10.126 104.119H7.517C4.006 104.119 0 108.275 0 111.919C0 118.537 14.794 136.309 30.652 148.741C57.068 169.45 92.767 182.069 106.5 175.552C110.965 173.433 111.494 170.638 108.422 165.396C105.478 160.372 106.442 159.71 109.903 164.378C111.224 166.161 119.83 175.044 129.027 184.119C149.749 204.567 155.576 213.012 161.85 231.692C166.787 246.39 170.571 285.374 171.549 331.619L172.227 363.619L174.064 366.657C180.155 376.73 197.782 376.45 204.583 366.173C208.219 360.678 208.52 356.062 206.641 334.585C205.777 324.704 204.597 308.294 204.02 298.119C200.253 231.745 196.92 216.342 181.948 196.119C176.13 188.26 171.069 183.346 156 170.92C132.584 151.611 122.012 140.294 109.273 120.897C101.468 109.014 94.483 94.307 89.553 79.379L85.841 68.139L83.286 66.129C80.061 63.592 74.852 63.52 72.625 65.981ZM180.971 169.654C180.271 170.498 179.737 172.573 179.785 174.266L179.873 177.345L187.296 184.982C196.033 193.971 200.862 201.202 204.875 211.305C215.281 237.5 221.465 301.274 217.875 345.365L216.751 359.178L218.465 363.666C219.495 366.363 221.608 369.244 223.761 370.886L227.344 373.619H234.501H241.657L246.578 370.59C252.446 366.978 257.227 360.26 259.555 352.357L261.245 346.619L260.677 329.119C260.082 310.797 256.004 266.043 253.522 250.607C250.464 231.587 244.111 214.618 235.589 202.708C226.347 189.792 209.229 175.46 197.068 170.457C190.541 167.772 182.852 167.388 180.971 169.654Z" fill="black"/>
</svg>
